<?xml version="1.0" encoding="UTF-8"?>
<svg id="Layer_2" data-name="Layer 2" xmlns="http://www.w3.org/2000/svg" viewBox="0 0 35.47 36.23">
  <defs>
    <style>
      .cls-1 {
        fill: none;
        stroke: #231f20;
        stroke-linecap: round;
        stroke-linejoin: round;
      }
    </style>
  </defs>
  <g id="Layer_1-2" data-name="Layer 1">
    <g>
      <polygon class="cls-1" points="9.01 .5 9.01 14.54 .5 14.54 3.56 18.46 3.56 22.12 7.65 25.27 9.44 22.8 12.84 22.8 18.12 29.44 18.12 33.1 23.99 35.73 23.99 29.27 26.12 26.29 28.07 26.29 34.97 19.05 33.01 14.97 33.01 9.35 23.14 9.35 23.14 7.22 18.54 7.22 18.54 .5 9.01 .5"/>
      <line class="cls-1" x1="18.54" y1="7.22" x2="18.54" y2="33.01"/>
      <line class="cls-1" x1="18.54" y1="15.31" x2="33.01" y2="15.31"/>
      <polygon class="cls-1" points="13.95 13.09 14.56 14.98 16.54 14.98 14.94 16.14 15.55 18.02 13.95 16.86 12.35 18.02 12.96 16.14 11.36 14.98 13.34 14.98 13.95 13.09"/>
    </g>
  </g>
</svg>